<svg xmlns="http://www.w3.org/2000/svg" id="Layer_1" data-name="Layer 1" viewBox="0 0 54.5 54.5"><defs><style>.cls-1{fill:#e30613}</style></defs><path d="M15.49 57A6 6 0 017 48.52L48.52 7A6 6 0 1157 15.49z" class="cls-1" transform="translate(-4.75 -4.75)"/><path d="M15.49 57A6 6 0 017 48.52L48.52 7A6 6 0 1157 15.49z" style="stroke-miterlimit:10;fill:none;stroke:#1d1d1b;stroke-linecap:round" transform="translate(-4.75 -4.75)"/><path d="M57 57a6 6 0 01-8.48 0L7 15.49A6 6 0 017 7a6 6 0 018.49 0L57 48.52A6 6 0 0157 57z" class="cls-1" transform="translate(-4.75 -4.75)"/><path d="M57 57a6 6 0 01-8.48 0L7 15.49A6 6 0 017 7a6 6 0 018.49 0L57 48.52A6 6 0 0157 57z" style="stroke-linejoin:round;fill:none;stroke:#1d1d1b;stroke-linecap:round" transform="translate(-4.75 -4.75)"/><path d="M24.22 26.09h16.4v11h-16.4z" class="cls-1" transform="rotate(-45 24.304 34.943)"/></svg>