<svg xmlns="http://www.w3.org/2000/svg" viewBox="0 0 512 512"><defs><style>.cls-1{fill:#da1c5c;}.cls-1,.cls-2,.cls-3{stroke:#231f20;stroke-miterlimit:10;}.cls-2{fill:#ed1c24;}.cls-3{fill:#eaac21;}</style></defs><g id="Layer_1" data-name="Layer 1"><rect class="cls-1" width="512" height="512"/><rect class="cls-2" x="-15.32" y="-13.02" width="512" height="512"/></g><g id="Layer_2" data-name="Layer 2"><path class="cls-3" d="M186.47,16c-72.35,61.07-146.1,344.34-28.06,443,54.35,45.4,162.23,43.37,231.55-12.75,68.62-55.56,66.26-190.09,18.79-226.84-41.61-32.22-157,18.84-192.75-28.19-15.3-20.14,7.06-127,31.68-161.08C269.72-.45,190.55,12.54,186.47,16Z"/></g><g id="Layer_3" data-name="Layer 3"><path class="cls-2" d="M207.13,259.79c-23.59,15.6-18.78,63-13,85.79,3,11.92,11.65,46.18,44.42,66.64,33.39,20.84,80.41,20.25,114.13-6.13,40.58-31.75,37.9-82.08,37.53-87.32-.74-10.52-3.08-43.59-25.28-56.68-19.5-11.5-33.31,4.82-76.59,5.36C239.65,268.06,225.23,247.83,207.13,259.79Z"/></g></svg>